<?xml version="1.0" encoding="UTF-8" standalone="no"?>
<svg width="180px" height="180px" viewBox="0 0 180 180" version="1.1" xmlns="http://www.w3.org/2000/svg" xmlns:xlink="http://www.w3.org/1999/xlink" xmlns:sketch="http://www.bohemiancoding.com/sketch/ns">
    <!-- Generator: Sketch 3.3.1 (12005) - http://www.bohemiancoding.com/sketch -->
    <title>SunSki</title>
    <desc>Created with Sketch.</desc>
    <defs>
        <filter x="-50%" y="-50%" width="200%" height="200%" filterUnits="objectBoundingBox" id="filter-1">
            <feOffset dx="-10" dy="-8" in="SourceAlpha" result="shadowOffsetInner1"></feOffset>
            <feGaussianBlur stdDeviation="0" in="shadowOffsetInner1" result="shadowBlurInner1"></feGaussianBlur>
            <feComposite in="shadowBlurInner1" in2="SourceAlpha" operator="arithmetic" k2="-1" k3="1" result="shadowInnerInner1"></feComposite>
            <feColorMatrix values="0 0 0 0 0   0 0 0 0 0   0 0 0 0 0  0 0 0 0.105 0" in="shadowInnerInner1" type="matrix" result="shadowMatrixInner1"></feColorMatrix>
            <feMerge>
                <feMergeNode in="SourceGraphic"></feMergeNode>
                <feMergeNode in="shadowMatrixInner1"></feMergeNode>
            </feMerge>
        </filter>
        <filter x="-50%" y="-50%" width="200%" height="200%" filterUnits="objectBoundingBox" id="filter-2">
            <feOffset dx="-8" dy="-8" in="SourceAlpha" result="shadowOffsetInner1"></feOffset>
            <feGaussianBlur stdDeviation="0" in="shadowOffsetInner1" result="shadowBlurInner1"></feGaussianBlur>
            <feComposite in="shadowBlurInner1" in2="SourceAlpha" operator="arithmetic" k2="-1" k3="1" result="shadowInnerInner1"></feComposite>
            <feColorMatrix values="0 0 0 0 0   0 0 0 0 0   0 0 0 0 0  0 0 0 0.105 0" in="shadowInnerInner1" type="matrix" result="shadowMatrixInner1"></feColorMatrix>
            <feMerge>
                <feMergeNode in="SourceGraphic"></feMergeNode>
                <feMergeNode in="shadowMatrixInner1"></feMergeNode>
            </feMerge>
        </filter>
        <filter x="-50%" y="-50%" width="200%" height="200%" filterUnits="objectBoundingBox" id="filter-3">
            <feOffset dx="-8" dy="-8" in="SourceAlpha" result="shadowOffsetInner1"></feOffset>
            <feGaussianBlur stdDeviation="0" in="shadowOffsetInner1" result="shadowBlurInner1"></feGaussianBlur>
            <feComposite in="shadowBlurInner1" in2="SourceAlpha" operator="arithmetic" k2="-1" k3="1" result="shadowInnerInner1"></feComposite>
            <feColorMatrix values="0 0 0 0 0   0 0 0 0 0   0 0 0 0 0  0 0 0 0.105 0" in="shadowInnerInner1" type="matrix" result="shadowMatrixInner1"></feColorMatrix>
            <feMerge>
                <feMergeNode in="SourceGraphic"></feMergeNode>
                <feMergeNode in="shadowMatrixInner1"></feMergeNode>
            </feMerge>
        </filter>
        <filter x="-50%" y="-50%" width="200%" height="200%" filterUnits="objectBoundingBox" id="filter-4">
            <feOffset dx="-8" dy="-8" in="SourceAlpha" result="shadowOffsetInner1"></feOffset>
            <feGaussianBlur stdDeviation="0" in="shadowOffsetInner1" result="shadowBlurInner1"></feGaussianBlur>
            <feComposite in="shadowBlurInner1" in2="SourceAlpha" operator="arithmetic" k2="-1" k3="1" result="shadowInnerInner1"></feComposite>
            <feColorMatrix values="0 0 0 0 0   0 0 0 0 0   0 0 0 0 0  0 0 0 0.105 0" in="shadowInnerInner1" type="matrix" result="shadowMatrixInner1"></feColorMatrix>
            <feMerge>
                <feMergeNode in="SourceGraphic"></feMergeNode>
                <feMergeNode in="shadowMatrixInner1"></feMergeNode>
            </feMerge>
        </filter>
        <filter x="-50%" y="-50%" width="200%" height="200%" filterUnits="objectBoundingBox" id="filter-5">
            <feOffset dx="-8" dy="-8" in="SourceAlpha" result="shadowOffsetInner1"></feOffset>
            <feGaussianBlur stdDeviation="0" in="shadowOffsetInner1" result="shadowBlurInner1"></feGaussianBlur>
            <feComposite in="shadowBlurInner1" in2="SourceAlpha" operator="arithmetic" k2="-1" k3="1" result="shadowInnerInner1"></feComposite>
            <feColorMatrix values="0 0 0 0 0   0 0 0 0 0   0 0 0 0 0  0 0 0 0.105 0" in="shadowInnerInner1" type="matrix" result="shadowMatrixInner1"></feColorMatrix>
            <feMerge>
                <feMergeNode in="SourceGraphic"></feMergeNode>
                <feMergeNode in="shadowMatrixInner1"></feMergeNode>
            </feMerge>
        </filter>
        <filter x="-50%" y="-50%" width="200%" height="200%" filterUnits="objectBoundingBox" id="filter-6">
            <feOffset dx="-8" dy="-8" in="SourceAlpha" result="shadowOffsetInner1"></feOffset>
            <feGaussianBlur stdDeviation="0" in="shadowOffsetInner1" result="shadowBlurInner1"></feGaussianBlur>
            <feComposite in="shadowBlurInner1" in2="SourceAlpha" operator="arithmetic" k2="-1" k3="1" result="shadowInnerInner1"></feComposite>
            <feColorMatrix values="0 0 0 0 0   0 0 0 0 0   0 0 0 0 0  0 0 0 0.105 0" in="shadowInnerInner1" type="matrix" result="shadowMatrixInner1"></feColorMatrix>
            <feMerge>
                <feMergeNode in="SourceGraphic"></feMergeNode>
                <feMergeNode in="shadowMatrixInner1"></feMergeNode>
            </feMerge>
        </filter>
    </defs>
    <g id="Page-1" stroke="none" stroke-width="1" fill="none" fill-rule="evenodd" sketch:type="MSPage">
        <g id="SunSki" sketch:type="MSLayerGroup" transform="translate(14.000000, 34.000000)">
            <ellipse id="Oval-11" fill="#FFFFFF" sketch:type="MSShapeGroup" cx="63.4099438" cy="52.5744277" rx="51.9099438" ry="52.5744277"></ellipse>
            <ellipse id="Oval-10" fill="#F8EF7A" filter="url(#filter-1)" sketch:type="MSShapeGroup" cx="68.8266336" cy="55.3174413" rx="51.9099438" ry="52.5744277"></ellipse>
            <ellipse id="Oval-12" stroke="#535353" stroke-width="2" stroke-linecap="round" stroke-linejoin="round" sketch:type="MSShapeGroup" cx="63.4099438" cy="52.5744277" rx="51.9099438" ry="52.5744277"></ellipse>
            <path d="M82.0163579,20.5926591 C80.2420261,19.8248294 79,18.0546044 79,16 C79,13.2385763 81.2327555,11 83.9907898,11 L104,11 C104,8.23857625 106.2363,6 108.99571,6 L142.00429,6 C144.763344,6 147,8.24419519 147,11 C147,13.7614237 144.7637,16 142.00429,16 L128,16 C128,18.7614237 125.767244,21 123.00921,21 L108,21 C108,23.7614237 105.760752,26 103.002328,26 L86.9976716,26 C84.2375338,26 82,23.7558048 82,21 C82,20.8628601 82.0055229,20.7270098 82.0163579,20.5926591 Z" id="Rectangle-23" fill="#FFFFFF" sketch:type="MSShapeGroup"></path>
            <path d="M121.900082,57 L138.00429,57 C140.763344,57 143,59.2441952 143,62 C143,64.7614237 140.7637,67 138.00429,67 L134.899742,67 L134.899742,67 C134.965485,67.3232243 135,67.6576647 135,68 C135,70.7614237 132.7637,73 130.00429,73 L96.9957102,73 C94.2366556,73 92,70.7558048 92,68 C92,65.2385763 94.2362996,63 96.9957102,63 L100.100258,63 C100.034515,62.6767757 100,62.3423353 100,62 C100,61.6575342 100.034395,61.3231099 100.099918,61 L83.9957102,61 C81.2366556,61 79,58.7558048 79,56 C79,53.2385763 81.2362996,51 83.9957102,51 L117.00429,51 C119.763344,51 122,53.2441952 122,56 C122,56.3424658 121.965605,56.6768901 121.900082,57 Z" id="Rectangle-19" fill="#FFFFFF" sketch:type="MSShapeGroup"></path>
            <rect id="Rectangle-20" fill="#FFFFFF" sketch:type="MSShapeGroup" x="0" y="107" width="23" height="10" rx="11"></rect>
            <rect id="Rectangle-21" fill="#FFFFFF" sketch:type="MSShapeGroup" x="52" y="51" width="23" height="10" rx="11"></rect>
            <path d="M3.52105311,86.2229005 C1.4773703,86.8540624 0,88.7541064 0,91 C0,93.7558048 2.24166255,96 5.00689345,96 L35.9931065,96 C38.7665455,96 41,93.7614237 41,91 C41,88.2441952 38.7583374,86 35.9931065,86 L28.5838968,86 C28.8515079,85.3875377 29,84.7111047 29,84 C29,81.2441952 26.7624662,79 24.0023284,79 L7.99767164,79 C5.23924844,79 3,81.2385763 3,84 C3,84.7978675 3.18755743,85.5528502 3.52105311,86.2229005 Z" id="Rectangle-22" fill="#FFFFFF" sketch:type="MSShapeGroup"></path>
            <path d="M87.0163579,23.5926591 C85.2420261,22.8248294 84,21.0546044 84,19 C84,16.2385763 86.2327555,14 88.9907898,14 L109,14 C109,11.2385763 111.2363,9 113.99571,9 L147.00429,9 C149.763344,9 152,11.2441952 152,14 C152,16.7614237 149.7637,19 147.00429,19 L133,19 C133,21.7614237 130.767244,24 128.00921,24 L113,24 C113,26.7614237 110.760752,29 108.002328,29 L91.9976716,29 C89.2375338,29 87,26.7558048 87,24 C87,23.8628601 87.0055229,23.7270098 87.0163579,23.5926591 Z" id="Rectangle-13" fill="#7EC9C4" filter="url(#filter-2)" sketch:type="MSShapeGroup"></path>
            <path d="M126.900082,60 L143.00429,60 C145.763344,60 148,62.2441952 148,65 C148,67.7614237 145.7637,70 143.00429,70 L139.899742,70 L139.899742,70 C139.965485,70.3232243 140,70.6576647 140,71 C140,73.7614237 137.7637,76 135.00429,76 L101.99571,76 C99.2366556,76 97,73.7558048 97,71 C97,68.2385763 99.2362996,66 101.99571,66 L105.100258,66 C105.034515,65.6767757 105,65.3423353 105,65 C105,64.6575342 105.034395,64.3231099 105.099918,64 L88.9957102,64 C86.2366556,64 84,61.7558048 84,59 C84,56.2385763 86.2362996,54 88.9957102,54 L122.00429,54 C124.763344,54 127,56.2441952 127,59 C127,59.3424658 126.965605,59.6768901 126.900082,60 Z" id="Rectangle-13" fill="#7EC9C4" filter="url(#filter-3)" sketch:type="MSShapeGroup"></path>
            <rect id="Rectangle-13" fill="#7EC9C4" filter="url(#filter-4)" sketch:type="MSShapeGroup" x="5" y="110" width="23" height="10" rx="11"></rect>
            <rect id="Rectangle-13" fill="#7EC9C4" filter="url(#filter-5)" sketch:type="MSShapeGroup" x="57" y="54" width="23" height="10" rx="11"></rect>
            <path d="M8.52105311,89.2229005 C6.4773703,89.8540624 5,91.7541064 5,94 C5,96.7558048 7.24166255,99 10.0068935,99 L40.9931065,99 C43.7665455,99 46,96.7614237 46,94 C46,91.2441952 43.7583374,89 40.9931065,89 L33.5838968,89 C33.8515079,88.3875377 34,87.7111047 34,87 C34,84.2441952 31.7624662,82 29.0023284,82 L12.9976716,82 C10.2392484,82 8,84.2385763 8,87 C8,87.7978675 8.18755743,88.5528502 8.52105311,89.2229005 Z" id="Rectangle-13" fill="#7EC9C4" filter="url(#filter-6)" sketch:type="MSShapeGroup"></path>
            <path d="M82.0163579,20.5926591 C80.2420261,19.8248294 79,18.0546044 79,16 C79,13.2385763 81.2327555,11 83.9907898,11 L104,11 C104,8.23857625 106.2363,6 108.99571,6 L142.00429,6 C144.763344,6 147,8.24419519 147,11 C147,13.7614237 144.7637,16 142.00429,16 L128,16 C128,18.7614237 125.767244,21 123.00921,21 L108,21 C108,23.7614237 105.760752,26 103.002328,26 L86.9976716,26 C84.2375338,26 82,23.7558048 82,21 C82,20.8628601 82.0055229,20.7270098 82.0163579,20.5926591 Z" id="Rectangle-18" stroke="#535353" stroke-width="2" stroke-linecap="round" stroke-linejoin="round" sketch:type="MSShapeGroup"></path>
            <path d="M121.900082,57 L138.00429,57 C140.763344,57 143,59.2441952 143,62 C143,64.7614237 140.7637,67 138.00429,67 L134.899742,67 L134.899742,67 C134.965485,67.3232243 135,67.6576647 135,68 C135,70.7614237 132.7637,73 130.00429,73 L96.9957102,73 C94.2366556,73 92,70.7558048 92,68 C92,65.2385763 94.2362996,63 96.9957102,63 L100.100258,63 C100.034515,62.6767757 100,62.3423353 100,62 C100,61.6575342 100.034395,61.3231099 100.099918,61 L83.9957102,61 C81.2366556,61 79,58.7558048 79,56 C79,53.2385763 81.2362996,51 83.9957102,51 L117.00429,51 C119.763344,51 122,53.2441952 122,56 C122,56.3424658 121.965605,56.6768901 121.900082,57 Z" id="Rectangle-14" stroke="#535353" stroke-width="2" stroke-linecap="round" stroke-linejoin="round" sketch:type="MSShapeGroup"></path>
            <rect id="Rectangle-15" stroke="#535353" stroke-width="2" stroke-linecap="round" stroke-linejoin="round" sketch:type="MSShapeGroup" x="0" y="107" width="23" height="10" rx="11"></rect>
            <rect id="Rectangle-16" stroke="#535353" stroke-width="2" stroke-linecap="round" stroke-linejoin="round" sketch:type="MSShapeGroup" x="52" y="51" width="23" height="10" rx="11"></rect>
            <path d="M3.52105311,86.2229005 C1.4773703,86.8540624 0,88.7541064 0,91 C0,93.7558048 2.24166255,96 5.00689345,96 L35.9931065,96 C38.7665455,96 41,93.7614237 41,91 C41,88.2441952 38.7583374,86 35.9931065,86 L28.5838968,86 C28.8515079,85.3875377 29,84.7111047 29,84 C29,81.2441952 26.7624662,79 24.0023284,79 L7.99767164,79 C5.23924844,79 3,81.2385763 3,84 C3,84.7978675 3.18755743,85.5528502 3.52105311,86.2229005 Z" id="Rectangle-17" stroke="#535353" stroke-width="2" stroke-linecap="round" stroke-linejoin="round" sketch:type="MSShapeGroup"></path>
            <path d="M51,16 L67.0312195,16" id="Line" stroke="#535353" stroke-width="2" stroke-linecap="round" stroke-linejoin="round" sketch:type="MSShapeGroup"></path>
        </g>
    </g>
</svg>